<?xml version="1.0" standalone="no"?>
<!DOCTYPE svg PUBLIC "-//W3C//DTD SVG 20010904//EN"
 "http://www.w3.org/TR/2001/REC-SVG-20010904/DTD/svg10.dtd">
<svg version="1.0" xmlns="http://www.w3.org/2000/svg"
 width="500.000000pt" height="500.000000pt" viewBox="0 0 500.000000 500.000000"
 preserveAspectRatio="xMidYMid meet">

<g transform="translate(0.000000,500.000000) scale(0.100000,-0.100000)"
fill="#000000" stroke="none">
<path d="M2775 3918 c-46 -27 -100 -115 -226 -373 -54 -110 -98 -195 -99 -190
0 6 7 53 16 105 8 52 16 136 17 187 2 79 -1 95 -19 120 -42 57 -112 53 -141
-7 -6 -14 -17 -104 -23 -200 -6 -96 -14 -193 -19 -215 l-8 -40 -6 35 c-4 19
-11 98 -17 175 -12 163 -21 197 -60 225 -52 37 -107 18 -154 -54 -23 -35 -74
-181 -102 -295 l-9 -33 -25 38 c-14 21 -48 53 -77 70 -53 32 -208 78 -301 90
-48 6 -51 8 -38 23 9 10 34 27 56 40 l40 22 0 -24 c0 -34 32 -61 62 -52 34 11
162 102 208 147 47 48 59 92 36 137 -46 89 -183 78 -411 -33 -274 -133 -369
-281 -253 -393 43 -41 70 -51 208 -74 186 -31 262 -49 257 -62 -6 -21 -94 -81
-182 -125 l-86 -44 -40 16 c-81 33 -172 18 -266 -43 -129 -83 -133 -219 -8
-266 56 -22 125 -14 250 27 191 63 366 161 476 265 l57 54 7 -53 c20 -142 173
-161 215 -26 20 63 21 63 44 22 30 -54 81 -86 129 -82 24 2 37 -1 37 -8 0 -13
97 -94 112 -94 21 0 49 22 63 50 14 28 71 67 82 57 2 -3 0 -27 -5 -53 -16 -90
23 -154 93 -154 71 0 98 49 132 236 12 70 21 95 33 99 10 3 36 23 60 45 l42
39 -6 -32 c-4 -18 -9 -63 -12 -102 -6 -62 -4 -73 16 -97 14 -18 31 -28 49 -28
57 0 86 43 124 189 l22 83 100 46 c139 63 333 174 399 228 126 102 141 215 42
302 -50 44 -103 57 -231 55 -129 -1 -328 -38 -441 -82 l-74 -29 0 43 c0 61
-37 105 -88 105 -21 0 -46 -6 -57 -12z m80 -48 c16 -17 17 -31 11 -112 -4 -51
-17 -151 -30 -223 -13 -71 -22 -131 -21 -133 1 -1 14 2 28 7 32 12 44 0 53
-57 9 -60 -8 -93 -70 -133 l-53 -34 -27 -135 c-15 -76 -34 -142 -43 -152 -20
-22 -56 -23 -77 -2 -20 19 -20 18 1 125 9 49 13 92 9 96 -4 4 -42 -10 -84 -32
-59 -31 -80 -48 -91 -72 -16 -37 -37 -43 -46 -13 -3 11 -12 20 -19 20 -8 0
-19 7 -26 15 -18 22 2 85 41 129 16 19 65 112 108 208 173 383 250 511 312
517 3 1 14 -8 24 -19z m-1027 -26 c48 -33 22 -83 -85 -162 -132 -96 -154 -94
-65 7 34 38 62 72 62 75 0 10 -155 -60 -210 -96 -72 -46 -160 -116 -160 -127
0 -4 35 -14 78 -20 127 -20 279 -59 331 -85 98 -50 127 -126 81 -217 -64 -124
-469 -341 -667 -356 -70 -6 -73 -5 -102 25 -60 60 -30 126 81 181 49 25 74 31
124 31 52 0 65 -3 77 -21 l15 -21 61 25 c133 54 311 175 311 213 0 34 -80 60
-292 94 -159 26 -210 46 -233 90 -46 88 42 187 260 295 155 76 284 103 333 69z
m1785 -27 c52 -31 82 -83 72 -127 -18 -80 -151 -179 -421 -311 l-181 -89 -27
-102 c-29 -113 -49 -151 -74 -146 -23 4 -27 46 -12 146 l12 84 -26 27 c-26 27
-33 56 -18 77 4 5 23 20 43 32 33 20 39 30 58 105 12 45 26 94 31 110 6 19 6
27 -3 27 -19 0 -77 -39 -83 -55 -10 -25 -60 -18 -83 11 -70 89 50 168 329 218
125 22 146 24 247 21 78 -2 98 -6 136 -28z m-1191 -74 c24 -22 24 -98 -2 -273
-25 -168 -48 -276 -67 -315 -42 -83 -92 -97 -141 -41 -23 26 -36 59 -55 141
-15 59 -28 109 -30 111 -2 2 -16 -55 -30 -126 -31 -147 -42 -177 -69 -186 -62
-19 -94 31 -85 132 9 94 73 347 108 423 35 78 55 101 84 101 50 0 53 -14 81
-344 6 -83 29 -185 44 -200 11 -11 35 37 53 109 23 91 28 136 36 305 4 86 11
161 15 168 10 17 36 15 58 -5z m543 -210 l32 5 -10 -39 c-12 -50 -58 -80 -83
-54 -8 8 -19 15 -24 15 -5 0 -7 15 -4 33 10 57 11 59 35 46 12 -6 36 -9 54 -6z"/>
<path d="M2651 3500 c-68 -133 -121 -243 -120 -245 2 -2 40 18 84 44 69 40 82
52 93 86 17 53 74 334 70 347 -2 5 -59 -99 -127 -232z m9 -110 c-16 -31 -23
-18 -8 15 7 15 14 23 16 17 2 -6 -2 -21 -8 -32z"/>
<path d="M3338 3724 c-48 -7 -105 -18 -126 -23 l-39 -11 -22 -106 c-12 -58
-21 -108 -19 -110 2 -1 75 33 163 76 155 76 282 161 270 180 -8 14 -123 11
-227 -6z m77 -60 c-56 -35 -206 -106 -212 -100 -3 2 -2 23 2 45 6 37 10 42 46
51 42 12 140 27 179 28 22 1 21 -1 -15 -24z"/>
<path d="M4046 3596 l-34 -73 -101 5 c-126 6 -128 -1 -36 -103 l65 -73 -57
-122 c-47 -100 -54 -123 -42 -131 8 -5 17 -9 20 -9 3 0 44 31 90 70 46 38 89
70 94 70 6 0 41 -27 78 -60 122 -107 135 -101 93 46 -14 52 -26 100 -26 107 0
8 50 42 110 77 61 34 110 66 110 71 0 17 -41 29 -102 30 -35 0 -85 4 -112 7
l-50 7 -16 66 c-29 114 -38 115 -84 15z m58 -131 c7 -34 8 -35 54 -36 26 0 56
-4 66 -8 17 -6 11 -13 -37 -40 -61 -35 -62 -38 -35 -109 15 -41 -3 -44 -47 -8
l-43 36 -42 -35 c-65 -54 -69 -39 -20 68 13 26 11 30 -18 60 -18 18 -32 36
-32 40 0 4 23 7 51 7 48 0 51 1 65 35 17 42 29 39 38 -10z"/>
<path d="M1464 2811 c-64 -39 -159 -179 -276 -406 l-77 -150 -1 113 c0 157
-22 202 -98 202 -74 0 -101 -78 -109 -311 -6 -164 6 -259 47 -353 9 -23 20
-58 24 -80 14 -77 84 -109 140 -65 17 13 82 131 182 332 86 172 158 314 160
316 1 1 13 -4 26 -13 12 -9 38 -16 58 -16 l36 0 -33 -127 c-18 -71 -32 -140
-33 -155 0 -20 -10 -32 -43 -51 -61 -36 -117 -100 -117 -135 0 -38 24 -68 64
-82 37 -12 43 -10 206 57 52 22 139 55 192 73 126 43 163 72 163 130 0 35 -6
47 -33 71 -37 34 -79 37 -156 14 -27 -8 -53 -15 -57 -15 -11 0 99 322 114 336
7 6 35 19 62 29 28 10 60 27 73 38 31 29 29 77 -4 108 -51 47 -221 25 -366
-47 -26 -13 -50 -24 -52 -24 -3 0 8 28 24 63 37 76 38 110 5 142 -30 30 -77
33 -121 6z m94 -59 c2 -15 -80 -190 -229 -488 -192 -385 -236 -465 -256 -470
-32 -8 -50 9 -56 54 -3 20 -17 68 -31 105 -35 92 -47 217 -35 364 5 64 14 133
19 154 14 50 40 65 70 41 21 -17 22 -22 21 -262 -1 -134 0 -242 2 -239 3 2 21
47 42 99 93 236 252 522 346 625 35 38 48 46 73 43 24 -2 32 -9 34 -26z m376
-108 c9 -3 16 -17 16 -29 0 -19 -12 -28 -71 -51 -49 -19 -74 -35 -83 -53 -37
-71 -143 -407 -132 -418 2 -2 41 7 86 21 44 14 96 26 114 26 66 0 88 -72 30
-99 -15 -7 -82 -32 -149 -56 -67 -24 -159 -60 -205 -80 -88 -38 -116 -41 -133
-13 -18 28 8 65 75 109 l62 40 27 122 c25 113 66 258 84 300 9 21 -8 23 -28 2
-8 -8 -34 -22 -57 -31 -41 -16 -42 -16 -63 5 -20 20 -21 23 -7 49 49 86 341
192 434 156z"/>
<path d="M2405 2806 c-71 -19 -95 -30 -172 -78 -148 -94 -260 -203 -309 -304
-53 -109 -39 -198 42 -253 33 -23 118 -38 229 -41 40 -1 27 -9 -110 -66 -175
-73 -193 -83 -216 -120 -27 -45 -20 -92 22 -133 37 -38 81 -46 161 -32 68 12
211 77 295 133 l52 36 11 -29 c15 -34 50 -59 86 -59 15 0 62 16 106 36 43 19
139 57 214 84 l135 48 15 -37 c27 -65 88 -111 146 -111 106 0 235 113 324 284
30 59 35 65 31 36 -22 -133 -13 -197 33 -232 71 -53 135 -26 171 72 l22 60 19
-40 c50 -101 156 -117 216 -32 34 46 62 146 86 306 34 216 39 286 27 334 -24
89 -119 111 -158 37 -6 -11 -16 -101 -22 -200 -18 -281 -34 -315 -46 -100 -11
188 -21 236 -55 268 -65 59 -131 26 -189 -95 l-38 -80 -5 59 c-6 66 -26 113
-67 156 -41 45 -73 57 -149 57 -59 0 -80 -5 -128 -31 -33 -16 -76 -43 -96 -60
-36 -28 -37 -28 -40 -7 -2 11 -16 30 -31 42 -44 33 -137 27 -265 -16 l-102
-34 -11 40 c-14 51 -56 90 -113 105 -53 13 -57 13 -121 -3z m135 -51 c65 -33
76 -86 32 -152 -32 -49 -233 -273 -244 -273 -4 0 -12 9 -18 20 -15 29 5 68 99
193 44 60 81 113 81 118 0 14 -68 -17 -126 -56 -66 -46 -172 -151 -222 -223
l-41 -58 99 -22 c211 -48 298 -130 245 -231 -35 -68 -198 -179 -332 -227 -92
-32 -156 -32 -188 1 -30 29 -32 65 -6 89 10 10 71 39 134 66 187 79 283 132
272 150 -6 10 -111 28 -215 35 -121 8 -169 44 -170 123 0 90 83 207 221 311
176 133 299 177 379 136z m868 -53 c17 -12 41 -43 53 -70 68 -138 -17 -428
-177 -600 -71 -78 -113 -102 -174 -102 -34 0 -47 6 -70 30 -69 74 -64 222 15
433 29 80 33 99 25 128 -19 65 5 105 96 162 83 52 175 59 232 19z m582 -21
c16 -31 12 -112 -15 -297 -30 -204 -56 -296 -95 -336 -38 -37 -66 -35 -106 7
-27 29 -36 52 -55 132 -12 54 -25 104 -29 111 -4 8 -14 -25 -24 -75 -24 -122
-45 -195 -63 -215 -23 -26 -58 -22 -83 10 -20 24 -22 35 -17 102 8 97 78 372
113 442 34 68 52 88 79 88 50 0 54 -13 70 -220 15 -184 35 -304 55 -324 5 -5
16 6 25 25 31 58 55 208 62 369 3 85 10 165 14 178 11 28 54 30 69 3z m-996
-7 c9 -8 16 -20 16 -24 0 -14 -38 -36 -98 -57 -30 -10 -57 -25 -62 -33 -12
-23 -128 -371 -135 -407 l-6 -31 90 29 c50 16 103 29 118 29 57 0 85 -65 41
-94 -13 -8 -90 -39 -173 -69 -82 -30 -176 -66 -209 -81 -67 -30 -98 -33 -117
-10 -18 22 4 59 61 101 25 18 53 38 62 45 11 9 26 55 43 132 15 66 40 162 55
215 16 53 27 97 26 99 -7 6 -36 -11 -36 -22 0 -6 -20 -18 -45 -25 -52 -15 -75
-5 -75 36 0 33 42 69 125 109 131 63 286 91 319 58z m39 -139 c4 -44 0 -68
-22 -127 -16 -40 -34 -97 -41 -125 -11 -49 -14 -53 -42 -53 -16 0 -55 -7 -85
-16 -30 -9 -57 -13 -60 -10 -7 7 97 316 111 328 10 9 111 54 127 57 3 0 9 -24
12 -54z m-744 -77 c-16 -29 -29 -68 -29 -87 0 -30 -2 -33 -22 -27 -13 3 -31 6
-42 6 -16 0 -15 4 9 38 25 32 106 122 111 122 1 0 -11 -24 -27 -52z m244 -25
c11 -10 35 -18 58 -18 30 0 38 -3 34 -15 -17 -56 -46 -175 -56 -228 -8 -43
-18 -67 -33 -77 -11 -8 -23 -15 -26 -15 -3 0 -5 23 -6 50 -1 58 -20 90 -82
135 -22 17 -41 33 -41 37 -1 8 119 148 127 148 3 0 14 -8 25 -17z"/>
<path d="M3302 2621 c-6 -17 -22 -40 -36 -52 -41 -35 -34 -60 27 -95 70 -41
89 -47 99 -32 11 18 10 96 -2 140 -20 70 -70 92 -88 39z m48 -81 c0 -43 -2
-45 -30 -30 -18 10 -18 12 -2 40 23 40 32 38 32 -10z"/>
<path d="M3161 2338 c-36 -110 -54 -269 -33 -282 15 -9 87 51 129 106 45 60
87 128 82 132 -9 7 -155 76 -161 76 -3 0 -11 -15 -17 -32z m116 -70 c-1 -3
-24 -35 -51 -69 -55 -71 -65 -67 -47 20 21 98 16 92 61 73 22 -10 39 -20 37
-24z"/>
</g>
</svg>
